/* XPM */
static char *_6e1a13677d94498d1f4f5847d3b19d4oFhrR8vU9BhbDUkX[] = {
/* columns rows colors chars-per-pixel */
"16 16 8 1 ",
"  c None",
". c gray3",
"X c #F85898",
"o c #FCE0A8",
"O c gray8",
"+ c #76428A",
"@ c #182038",
"# c white",
/* pixels */
"       ....     ",
"     ..XXXX..   ",
"     .XXXXXX.   ",
"    .XXXXXXXX.  ",
"    .XXXXXXXX.  ",
"    .XXXXXoo.   ",
"    .XOXXX.o.   ",
"   .X.oOXX.o.   ",
"   .XX.oXooo.   ",
"  .XXX......    ",
"   ...++.o..    ",
"    .oo.+++..   ",
"    .o.@++..o.  ",
"     .o+.o. .   ",
"     .o. .o.    ",
"                "
};
