/* XPM */
static char *_4698ee24bc748fecf9c54de98e52910EEFogq2nx8XZhYqN[] = {
/* columns rows colors chars-per-pixel */
"16 16 8 1 ",
"  c None",
". c gray3",
"X c #F85898",
"o c #FCE0A8",
"O c gray8",
"+ c #76428A",
"@ c #182038",
"# c white",
/* pixels */
"      ....      ",
"    ..XXXX..    ",
"    .XXXXXX.    ",
"   .XXXXXXXX.   ",
"   .XXXXXXXX.   ",
"    .ooXXXXX.   ",
"    .o.XXXOX.   ",
"    .o.XXOo.X.  ",
"    .oooXo.XX.  ",
"     ......XX.  ",
"      .o.+.X.   ",
"     .++.o..    ",
"     .@+.o.     ",
"      .+.o.     ",
"      .oo..     ",
"       .o.      "
};
