/* XPM */
static char *item2571750089161[] = {
/* columns rows colors chars-per-pixel */
"16 16 12 1 ",
"  c #14182E",
". c #4B1D52",
"X c #692464",
"o c #E64539",
"O c #9C2A70",
"+ c #CC2F7B",
"@ c #FF5277",
"# c #FF8933",
"$ c #FFEE83",
"% c #FFC2A1",
"& c #F5FFE8",
"* c None",
/* pixels */
"****************",
"*********XXXX..*",
"********.&&$$#.*",
"******* X&&&&%X*",
"****** OO$&%%%X*",
"****** +OX%#@@.*",
"*****.@oO...X **",
"****.#o+..X@ ***",
"****.@o.XX@ ****",
"***X#oXXO# *****",
"**X%@XO+% ******",
"**X#OO+  *******",
"*X$O+@ *********",
"*X%+@ **********",
"*.   ***********",
"****************"
};
