/* XPM */
static char *item2551750089161[] = {
/* columns rows colors chars-per-pixel */
"16 16 9 1 ",
"  c #4B1D52",
". c #692464",
"X c #9C2A70",
"o c #CC2F7B",
"O c #FF5277",
"+ c #FFC2A1",
"@ c #DFE0E8",
"# c #F5FFE8",
"$ c None",
/* pixels */
"$$$$$$$$$$$$$$$$",
"$$$$$$$$$XXXXX$$",
"$$$$$$$$X####X$$",
"$XXXXX$X+###@.$$",
"$X####X+##oO+.$$",
"$X####.O#XO+.$$$",
"$.@##+.X.O+oo..$",
"$.+@OOo..+O##@.$",
"$$ +@O+.X.#@++.$",
"$ ..+@Oo.O@oO@.$",
"$ ##O+@OX+.O@.$$",
"$.#@+.Xo..O+ $$$",
"$.ooO+....o.. $$",
"$$.ooXX  oO++ $$",
"$$$..  $$  ..$$$",
"$$$$$$$$$$$$$$$$"
};
