/* XPM */
static char *fa7074701dae45cabec9fefc8477f151Q4t5EC230BtRMH78[] = {
/* columns rows colors chars-per-pixel */
"16 16 9 1 ",
"  c #161318",
". c #161529",
"X c #501F1B",
"o c #7F0F30",
"O c #380372",
"+ c #690974",
"@ c #C21F69",
"# c #D8606D",
"$ c #F3A995",
/* pixels */
"....  . .@@..  .",
"  O@.   OO@@.   ",
" ..O.....O@@..  ",
"   ..@@. .O.....",
".  .OO@@  ...O@.",
"O@@..O@O.  . .O.",
".OO ..O..     ..",
"      ..  .. .  ",
" O.... ...#@@...",
"  .. O...+#@@@..",
"....  ..+++#@@@.",
" ..O@@ .+++$@@@.",
"  .OO@  ++@+$#..",
"   .OO  .@OO+..X",
" .....   .OO..Xo",
"..@@.     ..  .."
};
